<svg width="30" height="25" viewBox="0 0 30 25" fill="none" xmlns="http://www.w3.org/2000/svg">
<path d="M5.49998 7.49994C7.99998 7.49994 10.5 10 10.5 10C10.5 10 12.6737 7.49992 14.3775 7.49994C17 7.49996 20 10 20 12.5C20 17.1098 10.5 23.4999 10.5 23.4999C10.5 23.4999 2.72867 19.1433 1.49998 12.9999C0.999985 10.5 2.99998 7.49994 5.49998 7.49994Z" stroke="black" stroke-width="2"/>
<circle cx="21.5" cy="8.5" r="8.5" fill="black"/>
<path d="M21.6988 13.1193C21.1136 13.1193 20.5966 13.0156 20.1477 12.8082C19.7017 12.598 19.3537 12.3097 19.1037 11.9432C18.8537 11.5739 18.7301 11.1534 18.7329 10.6818C18.7301 10.3125 18.8025 9.97159 18.9503 9.65909C19.098 9.34375 19.2997 9.08097 19.5554 8.87074C19.8139 8.65767 20.1023 8.52273 20.4204 8.46591V8.41477C20.0028 8.30682 19.6704 8.07244 19.4233 7.71165C19.1761 7.34801 19.054 6.93466 19.0568 6.47159C19.054 6.02841 19.1662 5.6321 19.3935 5.28267C19.6207 4.93324 19.9332 4.65767 20.331 4.45597C20.7315 4.25426 21.1875 4.15341 21.6988 4.15341C22.2045 4.15341 22.6562 4.25426 23.054 4.45597C23.4517 4.65767 23.7642 4.93324 23.9915 5.28267C24.2216 5.6321 24.3381 6.02841 24.3409 6.47159C24.3381 6.93466 24.2116 7.34801 23.9616 7.71165C23.7145 8.07244 23.3863 8.30682 22.9773 8.41477V8.46591C23.2926 8.52273 23.5767 8.65767 23.8295 8.87074C24.0824 9.08097 24.2841 9.34375 24.4346 9.65909C24.5852 9.97159 24.6619 10.3125 24.6648 10.6818C24.6619 11.1534 24.5341 11.5739 24.2812 11.9432C24.0312 12.3097 23.6832 12.598 23.2372 12.8082C22.794 13.0156 22.2812 13.1193 21.6988 13.1193ZM21.6988 12.1818C22.0937 12.1818 22.4346 12.1179 22.7216 11.9901C23.0085 11.8622 23.2301 11.6818 23.3863 11.4489C23.5426 11.2159 23.6221 10.9432 23.625 10.6307C23.6221 10.3011 23.5369 10.0099 23.3693 9.7571C23.2017 9.50426 22.973 9.3054 22.6832 9.16051C22.3963 9.01562 22.0682 8.94318 21.6988 8.94318C21.3267 8.94318 20.9943 9.01562 20.7017 9.16051C20.4119 9.3054 20.1832 9.50426 20.0156 9.7571C19.8508 10.0099 19.7699 10.3011 19.7727 10.6307C19.7699 10.9432 19.8452 11.2159 19.9986 11.4489C20.1548 11.6818 20.3778 11.8622 20.6676 11.9901C20.9574 12.1179 21.3011 12.1818 21.6988 12.1818ZM21.6988 8.03977C22.0113 8.03977 22.2883 7.97727 22.5298 7.85227C22.7741 7.72727 22.9659 7.55256 23.1051 7.32812C23.2443 7.10369 23.3153 6.84091 23.3182 6.53977C23.3153 6.24432 23.2457 5.98722 23.1094 5.76847C22.973 5.54687 22.7841 5.37642 22.5426 5.2571C22.3011 5.13494 22.0199 5.07386 21.6988 5.07386C21.3721 5.07386 21.0866 5.13494 20.8423 5.2571C20.598 5.37642 20.4091 5.54687 20.2756 5.76847C20.142 5.98722 20.0767 6.24432 20.0795 6.53977C20.0767 6.84091 20.1435 7.10369 20.2798 7.32812C20.419 7.55256 20.6108 7.72727 20.8551 7.85227C21.0994 7.97727 21.3807 8.03977 21.6988 8.03977Z" fill="white"/>
</svg>
