<svg width="66" height="67" viewBox="0 0 66 67" fill="none" xmlns="http://www.w3.org/2000/svg">
<path d="M33.0156 1.00098C15.0648 0.859733 0.454653 16.0584 1.01563 34.001C1.55936 51.3916 15.617 65.1379 33.0156 65.001C50.2745 64.8651 63.9763 51.252 64.5156 34.001C65.0723 16.1937 50.8311 1.14116 33.0156 1.00098Z" fill="white"/>
<path d="M28.5156 40.001L36.0156 33.001L28.5156 25.501M33.0156 1.00098C15.0648 0.859733 0.454653 16.0584 1.01563 34.001C1.55936 51.3916 15.617 65.1379 33.0156 65.001C50.2745 64.8651 63.9763 51.252 64.5156 34.001C65.0723 16.1937 50.8311 1.14116 33.0156 1.00098Z" stroke="#CC3541" stroke-width="2"/>
</svg>
